<svg width="6000" height="6000" viewBox="0 0 6000 6000" fill="none" xmlns="http://www.w3.org/2000/svg"><mask id="mask0_605_282" style="mask-type:alpha" maskUnits="userSpaceOnUse" x="0" y="0" width="6000" height="6000"><path fill="red" d="M0 0h6000v6000H0z"/></mask><g mask="url(#mask0_605_282)" stroke="#fff" stroke-linecap="round" stroke-linejoin="round"><path d="M-878.992-421.665c36.147 247.486 97.23 488.278 295.372 658.121 100.41 86.009 219.229 160.138 341.896 208.664C114.397 585.847 345.34 852.911 535.115 1168c131.203 217.87 282.822 418.83 476.615 586 156.47 134.87 329.68 127.34 510.75 66.6 125.51-42 253.2-78.15 375.87-127.18 107.44-43 187.77 6.03 218.72 118.64 50.04 181.06 70.63 365.96 65.1 552.37-9.53 319.61-173.87 538.81-468.41 649.59-149.78 56.22-312.61 76.64-467.07 121.15-227.6 65.76-435.949 165.49-569.16 375.49-136.39 215.19-102.418 416.16 108.61 560.4 219.56 149.93 465.9 224.9 728.14 240.46 154.46 9.03 298.72-44.35 426.24-132.2 227.43-156.79 459.54-308.22 675.09-480.24 104.43-83.33 184.42-202.31 260.9-315.09 237.47-349.89 504.73-673.35 831.23-942.75 164.84-136.05 367.16-194.95 576.18-227.24 343.41-52.88 685.13-117.3 1002.93-262.05 203-92.53 367.5-241.46 485.48-433.22 142.42-231.09 271.28-469.54 360.98-727.23 66.94-192.601 105.6-390.723 116.81-594.033 11.55-206.321 22.42-412.81 33.47-619.132"/><path d="M192.048 6254.92c23.429-184.23 102.753-345.37 209.857-493.13 108.611-149.93 228.433-292.16 332.357-445.1 94.888-139.73 51.544-306.22-80.829-418.34-123.505-104.75-274.622-149.59-420.551-195.94-282.989-89.69-421.722-276.6-461.384-563.92-36.985-267.06 43.678-506.85 156.64-734.75 99.573-201.14 229.102-387.55 348.255-578.81 125.01-200.97 147.77-412.31 74.972-636.2-88.528-272.42-217.052-523.25-411.178-735.26-156.64-171.02-356.623-279.61-577.191-341.03-135.218-37.65-277.801-49.53-417.706-69.27-177.56-24.93-331.18 34.8-477.78 132.02-165.35 109.61-352.94 185.41-485.99 343.04-53.72 63.58-85.01 128.17-82.17 210.5 6.03 181.22 21.26 362.95 14.06 543.67-7.2 183.56-40 363.78-154.97 519.73-88.86 120.65-208.51 202.98-337.21 263.89-253.7 119.98-487.82 267.06-711.74 435.57-110.95 83.49-231.94 165.99-383.06 160.47-75.47-2.85-151.79-10.54-225.75-25.27-116.65-23.43-230.11-61.24-351.94-24.6-189.78 57.23-221.57 214.52-117.15 352.24 115.47 152.44 240.99 299.19 340.39 461.67 142.42 232.93 263.08 479.08 396.96 717.36 73.63 130.85 146.76 263.38 235.29 384.03 162.67 221.38 225.92 468.53 224.08 737.6M4174.98-421.665c-5.52 36.311-15.73 72.455-15.9 108.766-1.67 189.589-2.01 379.344-.5 568.933 3.01 349.893-134.72 630.176-409.84 845.536-69.95 54.72-137.23 113.62-200.65 175.7-172.04 168.17-386.25 251.67-611.16 318.27-124.18 36.81-248.02 77.14-367.84 126-153.63 62.58-216.22 196.11-233.45 350.22-17.74 158.3-16.4 318.77-36.99 476.4-21.08 161.14-69.28 311.74-188.43 437.24-129.03 136.05-276.3 239.12-454.53 288.32-118.98 32.96-244.83 41.16-367.5 61.24-188.93 30.96-375.363 75.47-483.304 252.17-86.854 142.24-60.58 269.91 66.271 373.66 192.623 157.63 419.543 230.08 667.893 208.49 146.77-12.71 274.12-85.33 384.74-182.22 179.06-156.62 364.32-303.88 567.98-428.37 74.81-45.69 144.76-107.1 200.49-175.03 263.41-321.28 556.61-614.28 845.62-911.8 194.96-200.8 437.45-286.14 704.04-325.13 336.21-49.2 666.89-114.29 980-257.19 241.15-110.11 417.54-282.63 550.58-504.51 154.97-258.36 294.04-525.426 367.84-819.765 68.11-271.749 64.43-550.358 58.91-827.964-1.01-53.044-10.55-105.921-16.07-158.966"/><path d="M-962.664-421.665c34.976 369.304 144.256 694.432 510.083 870.801 83.005 39.993 159.317 94.878 243.494 132.026C23.362 683.57 193.055 850.903 335.972 1058.06c241.821 350.23 494.352 693.09 743.538 1038.3 20.58 28.45 48.53 51.88 74.97 75.47 72.46 64.59 148.61 60.91 225.59 8.37 31.29-21.42 61.75-44.01 92.04-66.77 105.1-78.81 226.76-101.57 351.1-80.82 89.03 14.89 148.94 88.85 164.34 173.52 15.73 86.35 21.08 182.23-.17 266.23-41.67 164.66-192.45 292.33-397.96 293-53.05 0-107.44-20.41-158.64-13.22-62.93 8.7-136.06 20.58-182.25 58.57-248.681 204.31-521.461 388.71-694.167 668.33-153.962 249.32-137.896 516.39 156.305 684.72 242.992 139.06 502.892 231.26 778.512 274.76 216.38 34.14 414.86-23.42 584.55-158.96 179.91-143.74 367.5-273.93 569.66-384.2 139.24-75.97 216.89-209 282.99-343.37 190.28-386.87 454.02-716.52 773.16-1001.49 169.19-150.93 377.88-232.09 601.12-268.73 335.7-55.05 671.24-106.09 987.7-242.13 264.58-113.62 452.51-302.88 585.39-553.37 60.75-114.63 122.67-228.75 183.92-343.04"/><path d="M74.904 6254.92c44.85-289.32 189.608-531.11 359.468-761.53 69.618-94.38 139.068-191.76 124.007-317.43-5.188-43.17-22.928-91.03-50.038-124.5-93.884-115.79-234.29-152.44-366.497-202.3-61.92-23.43-125.68-44.68-183.75-75.97-211.698-114.12-279.307-318.1-317.463-534.63-53.72-304.38 33.972-585 167.685-852.56 99.238-198.63 199.314-398.42 319.471-584.5 159.15-246.65 164.672-494.97 55.058-754.5-88.863-210.51-201.824-406.29-375.533-561.24-172.203-153.44-368.672-241.12-602.628-243.3-158.313-1.5-313.444-2.84-443.814 109.44-338.55 291.32-628.9 610.43-697.18 1079.13-21.25 145.75-80.49 286.31-165.34 409.8-96.9 140.89-239.31 224.56-392.1 294-230.11 104.58-455.36 213.85-638.11 399.26-166.01 168.5-356.95 301.87-591.24 373.15-215.55 65.6-240.15 160.14-182.42 381.02 74.48 284.46 215.72 543.5 351.1 802.69 67.61 129.69 150.28 254.02 242.33 367.64 158.31 195.44 215.71 419.17 224.41 662.63 1.68 44.85 10.55 89.19 16.24 133.87"/><path d="M-1046.34-421.665c28.78 252.171 83.006 495.64 242.49 702.799 99.573 129.348 235.964 210.337 376.873 283.797 190.779 99.563 395.448 178.042 542.883 344.204 68.446 77.14 134.717 157.295 192.118 242.635 173.04 257.36 347.251 514.38 508.744 778.93 74.136 121.49 139.904 255.52 174.211 392.73 68.781 274.93 23.091 530.62-196.301 735.6-134.382 125.67-254.707 265.22-341.562 427.37-90.703 169.51-144.255 349.06-35.143 534.29 73.634 125 190.612 201.64 318.132 258.37 264.915 117.8 537.865 214.35 819.345 286.3 212.54 54.39 409.34 23.76 567.15-128.34 174.21-167.84 367.5-304.05 579.87-415.49 105.09-55.22 176.22-137.05 226.26-242.97 63.92-135.2 139.73-265.22 198.64-402.6 101.41-236.11 264.91-425.7 436.78-609.93 119.32-127.84 246.84-244.31 409.17-319.44 150.12-69.61 307.09-108.26 469.09-132.86 280.98-42.84 559.78-88.86 829.55-188.92 303.07-112.28 502.89-324.29 650.82-597.55 65.27-120.64 123.34-245.14 184.76-367.8"/><path d="M-42.242 6254.92c30.29-275.43 147.435-522.08 260.229-769.39 96.728-212.35 28.784-327.14-134.717-418.67-61.082-34.14-123.002-66.43-183.917-100.57-242.156-135.71-350.431-356.92-392.938-619.13-13.555-83.33-31.797-167.17-32.132-251-.669-213.52 58.071-415.32 140.575-610.77 94.218-223.39 187.431-447.28 285.666-668.83 31.127-70.44 77.818-133.86 115.806-201.47 101.582-181.22 100.41-372.14 31.797-559.72-82.17-224.23-209.355-422.02-417.036-551.87-230.441-144.07-602.962-153.11-804.951 131.19-150.45 211.68-328.85 403.44-479.96 614.61-78.82 110.11-140.24 238.29-184.25 366.97-111.79 326.3-337.88 522.91-655.01 636.2-262.74 93.87-474.27 261.37-655.18 473.88-79.99 93.88-181.07 170.18-274.45 252.34-56.57 49.7-114.97 97.72-175.72 142.24-132.37 97.05-131.54 235.94-97.23 367.79 86.19 330.82 225.25 637.38 456.87 896.41 160.99 180.05 236.46 393.4 235.79 635.36-.33 78.15 10.21 156.12 15.9 234.27M6534.61-421.665c-25.1 131.022-51.87 261.876-74.97 393.233-37.65 214.521-62.76 431.719-111.96 643.563-48.03 206.656-104.09 414.319-185.42 609.759-91.88 220.71-209.86 430.38-344.57 631.02-145.1 216.19-352.61 326.13-588.57 399.25-206.85 63.92-420.22 90.03-635.43 111.95-260.9 26.6-520.63 71.95-736.34 240.46-291.19 227.57-524.31 501.49-651.83 853.39-51.54 142.57-91.88 289.16-134.72 434.74-48.03 162.98-136.39 288.14-301.23 352.06-114.3 44.35-211.36 115.46-294.03 207.66-41 45.69-57.23 102.75-37.15 149.6 21.08 49.03 62.08 89.19 129.36 104.92 193.79 45.68 349.76-21.42 475.78-155.29 170.86-181.39 390.09-248.65 621.37-260.87 201.65-10.71 385.9 63.75 449.67 288.15 35.64 125.33 54.38 255.68 76.14 384.53 11.21 65.93 17.57 133.7 16.73 200.63-3.68 362.61-10.2 725.06-15.89 1087.67"/><path d="M4292.12-421.665c-11.21 108.766-18.74 218.035-34.13 326.132-32.8 230.585 2.51 466.357-64.1 695.101-40.67 140.058-100.58 272.084-197.64 372.818-184.59 191.594-383.4 370.144-584.22 545.004-112.29 97.72-259.39 133.53-399.8 178.54-96.56 30.96-194.12 63.42-283.99 109.44-166.51 85.68-238.98 239.62-258.72 416.83-18.91 169.34-21.42 340.19-35.98 510.03-9.04 106.42-23.94 212.51-42.34 317.76-8.04 45.85-15.23 93.54 27.94 114.46 31.63 15.23 81.84 15.06 114.81 1 189.44-80.32 351.77-203.98 502.05-341.86 159.82-146.75 316.62-296.85 468.58-451.8 185.25-188.92 414.86-265.05 670.23-293 389.93-42.5 771.82-118.13 1121.25-308.73 155.47-84.83 278.97-207.82 374.69-352.57 160.16-242.46 301.74-497.144 385.24-777.26 70.63-236.776 102.59-479.576 60.58-727.564-18.91-111.109-33.8-223.055-50.54-334.666m1640.03 5539.06c-183.24-62.25-343.4-168.17-492.01-286.64-217.22-173.19-470.58-269.24-721.11-375-307.08-129.85-622.71-243.8-895.32-443.26-107.1-78.31-221.91-149.26-293.2-267.23-73.3-120.98-102.58-247.99-49.87-384.87 46.36-120.31 87.19-243.47 143.76-358.93 83.17-170.01 78.65-303.37-160.49-344.87-148.61-25.77-294.87-65.93-443.81-90.03-332.03-53.88-637.61.34-904.53 223.56-192.45 160.97-333.03 357.09-423.9 587.51-43.68 110.94-60.58 230.25-35.14 350.73 21.75 102.74 84.34 173.35 184.42 199.12 104.09 26.78 211.7 40.16 317.46 60.41 67.11 12.89 137.06 19.41 200.15 43.34 123 46.69 180.57 157.46 189.61 274.59 22.09 289.15 31.29 579.81 35.31 869.97 3.18 228.57-14.39 457.32-13.05 686.06.67 131.19 20.41 262.21 31.63 393.24"/><path d="M7714.43 5242.56c-148.6-30.79-286.33-90.19-409.17-176.87-273.78-193.1-588.4-307.73-879.25-467.7-307.43-169-614.68-338.18-920.26-510.7-190.28-107.43-372.02-229.75-577.36-310.07-106.27-41.5-127.85-101.4-92.54-208.16 36.81-111.44 82-221.05 105.93-335.17 19.91-94.54 31.63-197.62 15.23-291.49-20.08-114.29-108.28-206.32-214.38-239.45-275.29-85.85-537.53-48.2-768.64 138.21-176.88 142.57-308.25 319.61-372.85 536.64-22.93 76.81-23.77 172.85.84 248.49 43.51 134.03 169.52 168.17 296.87 176.2 153.13 9.71 306.76 11.55 460.22 17.91 133.88 5.52 183.08 77.64 160.49 209.33-26.11 152.27-48.03 306.05-58.41 460-17.24 256.18-24.43 513.04-34.98 769.56-6.36 153.28-20.08 307.06-14.39 460 5.69 153.78 31.46 306.89 47.36 460.33 2.51 24.77.34 50.2.34 75.3"/><path d="M6618.29-421.665c-27.95 122.655-59.07 244.808-83.01 368.3-52.38 270.076-91.87 542.996-154.29 810.729-45.69 196.114-109.78 389.386-183.42 577.136-94.38 240.79-200.31 478.4-358.13 686.4-174.04 229.41-410 358.26-694 392.22-166.34 19.92-334.36 26.11-501.88 34.64-405.66 20.75-753.07 150.77-1015.81 483.09-131.88 166.83-241.16 339.86-315.12 537.81-53.05 142.07-49.37 289.82-38.16 435.07 9.04 115.46 163.33 210.84 306.42 218.87 100.74 5.52 201.15 19.07 301.23 32.8 173.71 23.76 282.65 127.84 324.32 292.83 32.47 128.51 59.58 261.04 66.11 392.9 10.71 217.03 4.68 434.9 2.17 652.43-1.34 111.61-17.4 223.39-14.22 334.66 4.01 142.4 20.58 284.47 31.79 426.7"/><path d="M4451.11-413.298c-25.11 86.511-59.75 171.349-73.47 259.7-38.66 247.319-66.27 496.478-103.09 744.298-25.77 173.859-113.46 321.781-226.59 450.63-158.81 180.88-327 353.41-492.51 528.1-101.58 107.26-225.25 176.87-367.5 219.21-97.06 28.78-190.11 71.28-285 107.26-158.98 60.57-239.14 183.73-276.46 343.03-36.82 157.13-40 309.06 50.2 452.13 40.84 64.93 79.33 80.32 151.12 58.57 165.34-49.86 286.84-165.32 409.01-277.44 107.43-98.56 206.17-206.49 310.76-308.22 101.92-99.23 230.78-135.54 367.84-151.11 288.18-32.63 580.7-29.45 862.02-116.29 279.31-86.18 555.6-179.89 751.57-411.81 184.42-218.2 311.77-471.38 420.55-734.759 79.99-193.772 122-394.739 114.47-602.734-6.7-188.751-45.86-372.818-132.54-543.665-4.02-7.865-16.24-11.378-24.61-17.068m-7472-8.199c50.2 273.255 96.89 547.346 151.95 819.597 32.3 159.971 113.8 286.14 274.45 352.738 205.341 85.173 404.822 184.736 612.002 264.89 257.217 99.39 462.388 262.38 626.056 479.24 146.431 193.94 259.058 406.79 344.574 635.03 111.287 297.18 68.278 569.1-108.276 829.47-115.806 170.85-226.926 346.21-325.495 527.43-99.406 182.56-142.583 383.87-118.317 592.7 30.793 264.38 197.138 417.99 433.939 510.86 129.194 50.71 261.4 96.72 383.398 161.48 86.353 45.85 164.506 112.95 233.956 183.06 63.263 63.92 47.527 156.29 24.433 231.43-45.352 147.75-154.966 258.02-247.678 377.83-108.61 140.23-220.567 278.95-315.455 428.21-53.384 83.83-75.642 187.75-111.789 282.46"/><path d="M-1146.75-421.665c35.81 278.777 81.5 554.542 259.393 786.465 86.352 112.615 205.003 183.899 326.332 250.833 158.48 87.347 329.345 157.46 473.433 264.218 128.023 94.878 241.319 219.039 335.035 348.889 197.138 272.92 378.546 557.55 512.761 868.29 96.895 224.4 128.357 459.67 46.69 692.59-36.315 103.58-117.145 192.1-180.236 285.81-102.083 151.43-219.73 294.17-305.246 454.14-77.149 144.41-114.301 307.06-54.724 474.89 45.519 128.01 128.357 220.04 251.527 275.77 167.183 75.8 334.198 151.6 502.055 225.73 110.95 49.03 224.91 91.03 333.86 144.07 62.75 30.46 123 70.78 175.38 116.97 85.02 75.3 100.58 204.81 24.6 289.99-161.66 180.88-328 358.09-501.55 527.26-200.314 195.45-386.24 398.09-475.605 670.67"/><path d="M-1397.77-421.665c38.99 175.7 76.48 351.734 117.98 526.932 17.4 73.626 39.33 147.086 66.94 217.365 83.17 211.007 241.15 348.89 442.472 444.27 112.626 53.379 220.232 118.639 335.537 165.492 292.36 118.476 501.715 330.146 667.392 588.006 122.165 190.09 233.955 385.71 313.446 600.56 127.855 345.71 65.768 652.27-152.791 938.07-136.055 178.04-258.388 365.12-334.03 577.47-93.884 263.71-82.17 553.53 135.386 724.55 94.385 74.13 213.873 117.3 324.324 169.67 124.007 58.91 249.352 115.46 376.705 167 97.398 39.33 169.359 109.61 231.949 186.75 62.08 76.3 59.91 179.38 14.89 255.68-81.83 138.72-177.054 272.25-283.154 393.4-131.37 150.27-269.433 294.51-364.321 471.38-42.339 78.98-68.446 166.5-101.916 250.16"/><path d="M-1263.89-421.665c28.78 223.39 73.63 444.102 160.82 651.93 89.87 214.186 249.35 367.63 458.37 469.369 125.68 61.076 253.703 117.97 376.036 185.07C-71.358 993.136 79.089 1153.94 208.953 1335.33c186.595 260.71 351.435 532.62 460.882 836.5 114.802 318.44 62.254 605.58-142.75 870.63-140.909 182.06-280.646 368.14-356.957 586.51-69.618 198.96-83.508 402.93 63.426 584.83 99.405 122.82 242.489 176.87 377.708 240.79 172.705 81.66 351.1 151.1 526.148 228.24 38.66 17.07 74.97 41 108.78 66.6 168.02 127.67 153.46 292.33 30.79 448.95-145.76 186.08-316.291 352.57-473.432 529.95-137.395 154.95-267.928 315.09-309.933 526.76M4668.66-413.299c-27.95 36.311-61.08 69.61-82.84 109.268-105.76 192.433-153.46 400.763-178.73 618.463-37.99 327.806-122 636.201-371.52 881.678-131.03 128.85-243.66 280.45-296.21 465.52-25.43 89.19-5.52 139.89 84.52 166.66 188.43 56.06 378.21 76.31 577.52 55.39 190.28-19.91 372.19-61.58 551.75-121.48 318.97-106.26 558.79-306.39 719.94-602.23 109.79-201.473 221.24-401.603 276.3-627.503 78.99-324.458 46.19-626.495-167.52-895.566-13.89-17.403-22.59-38.821-33.8-58.232m953.9-.334c-30.63 114.288-65.94 227.74-91.04 343.2-50.71 233.597-101.42 467.361-141.91 702.799-67.45 391.396-155.14 775.256-344.08 1129.496-121.49 227.91-233.78 461-362.31 684.73-90.7 157.79-38.99 201.8 77.32 269.24 78.99 45.85 158.31 91.7 233.95 142.57 121.33 81.49 203.33 197.28 267.93 325.79 73.97 147.09 144.42 296.02 218.22 443.1 61.76 123.33 138.23 236.95 259.56 308.9 178.57 105.92 352.61 59.4 517.62-33.97 126.35-71.62 246.17-154.95 368.84-232.93M1237.99-413.299c155.3 159.803 369.17 248.657 511.25 426.03C1895 194.957 1967.8 402.617 1982.36 632.533c13.05 206.321 20.92 412.807 34.81 618.967 5.69 84 17.74 168.17 33.64 250.83 13.55 70.95 100.57 122.99 182.74 108.1 251.36-45.18 502.56-92.04 753.08-142.07 182.91-36.48 341.06-127.17 485.15-242.3 162.33-129.68 325.49-258.861 452.01-426.529 80.16-106.424 129.86-227.573 132.37-359.599 5.53-287.143 1.68-574.454 1.68-861.765m50.2 6676.753c0-47.35-.67-94.87 0-142.23 5.35-295.68 14.06-591.19 15.39-886.86.84-159.31-23.26-315.76-73.13-468.87-86.35-265.39-308.42-356.42-560.62-232.26-102.92 50.7-202.83 112.62-292.36 184.07-188.1 150.09-402.48 212.51-637.27 214.68-114.3 1.01-228.93-7.86-343.07-16.06-174.38-12.55-316.46 57.4-443.47 167.84-217.73 189.42-437.29 376.83-651.83 569.93-95.06 85.68-189.442 175.53-265.921 277.11-76.814 102.07-131.036 221.04-195.298 332.49"/><path d="M-795.316-421.665c36.315 114.288 66.772 230.92 110.116 342.53 59.911 154.115 171.868 266.06 316.961 342.866 95.724 50.869 193.791 97.89 292.695 142.401C172.636 517.743 363.081 688.423 503.99 923.86c104.594 174.86 217.555 349.06 353.443 499.49 112.962 125.33 258.388 229.41 447.498 221.38 194.62-8.37 439.62-116.46 510.41-359.6 80.67-276.77 100.25-556.213 24.1-836.328-51.21-188.417-161.83-333.161-342.06-418.668-81.17-38.486-165.68-71.618-241.82-118.472-135.56-83.499-254.71-186.409-327.171-333.327M7706.06 5351.33c-192.95-32.63-367.16-110.11-536.52-207.33-193.46-111.11-396.96-204.65-592.42-312.58-156.47-86.34-310.43-178.38-460.21-275.93-265.59-173.02-539.37-331.65-830.39-455.98-112.96-48.2-237.3-84.34-366.83-53.55-153.3 36.48-253.87 144.07-304.58 278.11-50.54 133.7-70.45 281.45-86.35 425.02-25.11 224.9-44.69 451.3-49.54 677.54-3.68 172.52 15.9 346.04 31.8 518.56 9.54 103.91 32.13 206.49 48.86 309.73m-518.78 0c5.52-329.14 17.91-658.28 13.39-987.26-1.84-131.36-23.6-268.4-67.11-392.06-100.91-286.48-294.37-308.06-531.5-184.4-122.84 64.08-239.31 140.22-360.64 207.66-160.83 89.52-336.88 118.8-518.45 126.5-128.36 5.52-256.88 14.06-384.91 25.1-164.34 14.06-306.25 92.2-433.43 185.91-234.8 173.02-462.22 356.58-686.81 542.66-151.115 125.16-266.085 281.12-335.702 467.19"/><path d="M7714.43 5460.09c-80.83-13.89-162.16-25.94-242.66-42.17-195.13-39.32-358.46-152.6-535.35-234.26-54.22-25.1-105.26-57.23-159.32-82.83-263.07-124.67-499.03-289.99-728.97-467.36-232.28-179.05-488.66-318.44-768.47-411.64-259.23-86.35-511.26 34.13-601.96 293.16-53.89 153.78-76.98 313.75-84.85 476.74-8.2 170.34-22.42 340.18-32.63 510.36-15.23 253.68 24.93 500.83 91.87 744.63"/><path d="M7706.06 5786.39c-238.8 23.93-452.01 112.78-653.83 240.79-132.38 84.01-277.97 74.47-425.91 28.12-297.38-93.04-470.75-287.98-528.32-594.87-35.82-190.6-93.88-374.66-223.92-527.77-129.69-152.94-280.64-273.59-477.61-325.3-239.48-63.08-397.96 17.74-491.34 259.7-103.59 268.24-130.2 547.35-97.9 836.17 22.26 197.78 112.12 368.63 170.86 551.86M-694.906-421.665c43.678 271.08 155.635 497.147 418.709 618.463 129.362 59.571 263.242 109.268 392.604 168.672 205.505 94.376 352.606 252.338 469.249 442.596 79.324 129.348 155.301 261.204 243.996 383.864 99.908 138.55 233.958 238.28 408.668 258.86 141.24 16.74 262.41-39.99 349.93-149.93 99.91-125.5 135.22-276.77 163.5-433.391 24.1-134.201-3.68-254.179-44.51-377.336-53.72-161.811-179.57-242.968-327.01-300.53-77.14-30.288-159.48-49.196-233.45-85.34C923.703-4.838 775.933-179.701 711.001-421.498"/><path d="M7714.43 5560.49c-274.29-14.72-543.72-43.34-787.38-191.09-177.06-107.43-370.85-189.09-540.37-306.39-154.8-107.26-284.83-249.83-429.93-371.98-210.35-177.04-447.15-306.39-719.27-359.43-196.97-38.32-379.38 54.55-459.2 241.96-71.46 167.67-107.11 344.71-118.15 526.77-10.04 164.65-30.29 328.97-31.3 493.63-1.34 224.22 54.39 440.25 123.51 652.6"/><path d="M7714.43 5660.89c-164.5 11.21-329.01 29.45-493.68 31.63-212.37 2.84-409.17-59.24-594.76-164.32-191.45-108.43-325.67-268.91-453.35-443.1-147.44-200.8-320.65-380.68-542.55-502.17-121.5-66.43-250.02-116.46-392.44-128.34-191.95-15.9-338.05 109.27-400.8 269.57-62.93 160.81-101.58 328.14-109.95 501.67-4.52 92.03-11.55 184.06-16.4 276.1-11.21 210.84 30.79 413.14 100.24 610.76 16.74 47.36 33.47 94.88 50.21 142.23M-619.598-413.299c13.89 27.945 32.968 54.383 41.001 83.834 66.94 247.653 231.947 398.42 469.584 476.23 135.889 44.51 272.446 86.511 410.008 125.5 216.216 61.243 347.084 203.644 429.253 409.464 52.38 131.356 123.169 257.358 201.489 375.331 39.662 59.9 108.943 105.75 173.373 142.56 128.86 73.8 258.56 52.55 349.26-57.56 113.46-137.71 193.96-376.163 71.12-578.134-66.27-108.934-169.52-136.376-271.44-171.851-77.31-26.941-162.83-29.785-241.65-53.379C845.384 288.663 714.182 185.753 655.275 20.93c-51.042-142.568-75.643-294.506-111.79-442.261M3957.43 6254.92c5.52-276.1 18.4-552.36 14.05-828.29-2.67-171.02-28.11-341.87-122-494.14-48.53-78.65-156.8-137.05-242.82-106.76-141.58 49.87-281.15 106.26-418.54 166.67-171.54 75.3-350.94 111.94-535.86 134.03-259.56 31.12-531.67 24.6-760.44 176.2-275.29 182.39-550.91 366.8-808.97 572.11-116.638 92.87-208.179 227.58-254.87 380.02m761.44-6668.058c36.32 36.311 75.98 69.778 108.28 109.268 199.65 244.641 331.18 519.067 369.67 836.163 22.43 184.736 48.2 369.639 84.51 551.867 35.48 178.21 175.72 287.81 340.9 311.57 412.52 59.07 759.43-75.97 1062.17-345.54 97.06-86.345 189.1-179.382 275.79-276.268 94.05-105.252 142.41-232.76 143.25-375.495.84-158.966 2.35-317.933-.5-476.9-2.01-114.455-10.38-228.744-16.07-343.032"/><path d="M1798.61-421.666c72.46 147.755 157.48 290.993 214.04 444.772 55.23 150.265 84.85 310.402 119.82 467.361 40.33 181.054 46.53 368.969 117.31 543.833 75.81 186.91 218.4 260.03 393.95 275.09 338.38 29.29 625.55-88.01 869.71-317.761 91.88-86.511 182.75-174.528 267.1-268.234 95.05-105.253 126.01-238.283 125.34-375.496-1.34-256.522-9.87-513.21-15.56-769.732m-16.57 6676.753c5.52-214.68 18.24-429.54 14.39-644.23-2.85-161.47-27.11-322.62-106.6-468.53-60.75-111.28-151.79-150.43-275.79-116.8-159.49 43.01-316.8 94.04-477.45 131.86-129.2 30.45-261.24 50.7-392.94 67.6-204.34 26.11-417.54 33.97-600.29 130.35-317.13 167-631.41 345.21-894.82 593.03-88.53 83.33-147.6 198.12-220.062 298.52"/><path d="M1982.7-421.665c22.25 75.3 37.82 153.444 68.27 225.398 90.54 215.023 124.01 443.098 167.35 669.667 26.45 138.049 59.58 275.43 100.41 409.798 78.16 257.192 356.96 352.572 576.36 320.112 337.54-49.87 571.16-260.207 783.36-498.154 89.03-99.898 133.05-232.258 128.86-373.822-7.19-251-11.54-501.999-17.23-752.999m-16.74 6676.585c5.52-58.56 11.21-117.13 16.74-175.7 5.69-61.41 18.57-123.15 15.39-184.06-10.37-193.27-5.35-391.06-100.07-568.43-66.11-123.49-193.46-163.82-350.6-135.37-267.09 48.19-535.35 89.85-803.11 134.87-223.75 37.65-442.14 88.85-636.44 216.52-209.52 137.72-426.4 264.22-634.25 404.28-112.13 75.64-197.98 180.72-252.2 307.73"/><path d="M2108.21-413.299c25.1 80.822 56.73 160.305 74.13 242.968 53.55 255.852 101.92 512.876 151.79 769.565 33.8 173.859 105.93 328.809 253.2 432.056 54.05 37.81 130.7 52.87 198.98 59.57 255.21 25.27 455.02-98.896 634.59-258.699 121.5-108.264 228.1-231.087 260.9-400.26 21.09-108.6 21.59-215.358 12.05-326.635-14.9-174.36-4.02-351.064-4.02-526.764M6124.61 6246.56c-139.57-164.66-193.63-367.47-239.48-569.6-32.8-144.25-26.78-296.85-55.56-442.27-48.7-246.65-192.45-417.32-441.47-485.26-188.27-51.21-343.4 68.6-406.66 243.3-133.71 369.14-131.71 738.44 55.39 1094.86 27.78 53.05 55.73 105.92 83.68 158.97m-1447.58 8.36c11.21-122.65 33.81-245.81 30.12-367.96-3.51-112.11-29.28-224.73-56.56-334.5-51.54-207.49-272.61-240.12-408.5-225.06-151.29 16.9-300.73 48.86-452.18 64.59-322.82 33.63-631.25 104.08-904.19 293-169.19 116.96-350.1 217.2-515.94 338.51-84.52 61.75-147.1 153.28-219.57 231.42"/><path d="M2250.45-421.665c16.74 100.4 31.97 201.134 50.54 301.199 43.68 237.279 81.5 475.896 136.06 710.664 39.49 170.345 124.51 323.622 307.92 374.157 134.72 37.145 269.27 13.219 392.94-63.252 204.67-126.504 373.86-279.446 426.24-527.936 3.52-16.566 7.7-33.467 8.2-50.2 6.03-248.155 11.55-496.477 17.07-744.632m-33.64 6676.585c25.94-160.97 53.72-321.78 17.07-485.26-42.34-187.92-127.52-309.07-360.13-309.74-277.64-.83-550.25 40.33-819.85 101.58-148.94 33.8-277.97 111.44-402.48 199.12-190.28 134.04-385.24 261.71-576.19 395.08-38.15 26.6-67.6 65.92-101.08 99.39"/><path d="M2367.6-421.665c44.68 287.311 86.52 574.956 135.89 861.43 11.38 66.432 47.53 128.847 73.47 192.768 92.37 228.744 331.85 274.761 532 145.413 144.26-93.205 282.32-217.031 304.91-412.978 12.56-108.934 31.97-217.199 40.5-326.467 10.21-130.687 11.55-262.044 18.41-393.065 1.17-22.59 10.54-44.678 16.07-66.934M5672.76 6246.56c-2.84-195.28-4.18-390.56-8.87-585.67-2.34-97.72-7.36-195.61-17.06-292.83-11.22-111.11-32.47-219.21-107.44-310.07-132.71-160.47-339.89-131.69-435.62 50.53-45.35 86.52-61.75 179.55-79.49 275.27-22.59 121.31-11.54 237.28 14.56 351.73 38.83 170.68 140.41 308.73 257.55 435.4 24.1 26.11 50.04 50.37 75.14 75.47"/><path d="M2501.48-421.665c19.58 156.122 35.48 312.913 59.74 468.365 19.58 126.337 44.19 252.506 76.48 376.165 14.73 56.391 46.53 111.946 82.84 158.464 82.51 105.755 247.68 105.755 351.1 19.244 125.18-104.751 183.59-235.605 200.99-394.404 22.76-209.669 54.56-418.5 82.5-627.667m66.77 6676.418c11.22-100.4 35.65-201.47 30.63-301.03-10.38-206.99-70.79-327.97-314.95-361.77-156.98-21.76-308.77 5.35-460.05 29.62-130.37 20.74-266.09 45.68-382.9 102.91-125.34 61.24-232.78 160.13-345.07 246.48-116.31 89.52-229.1 183.56-343.57 275.59"/><path d="M3204.35 6254.92c16.73-61.41 43.18-121.81 48.36-184.23 18.41-220.88-66.6-295.68-282.99-323.62-188.6-24.27-375.7 11.21-551.25 82.66-178.22 72.62-294.7 212.85-377.2 383.36-5.36 11.21-11.22 22.26-16.74 33.47m627.56-6668.225c33.47 184.066 60.75 369.639 103.76 551.362 15.06 63.587 65.43 120.815 107.94 174.529 10.71 13.554 61.59 13.386 79.66 0 86.69-63.419 136.22-154.951 159.32-257.693 31.96-141.397 56.56-284.299 85.01-426.365 2.85-14.558 10.88-27.944 16.4-41.833m-3698.266 0C-443.546-186.562-276.698-14.042 8.132 37.497c54.556 9.873 114.467 19.578 166.513 7.028C327.602 7.712 388.351-86.497 392.535-270.898c1.171-50.2.167-100.4.167-150.6M4300.49 2799.5c-199.14 54.71-344.74 181.72-449.67 352.73-54.39 88.52-96.06 187.75-61.25 300.03 26.78 86.18 89.87 143.74 176.39 150.43 247.68 18.91 460.38-46.01 629.07-241.29 102.25-118.47 109.11-254.18 96.73-394.24-6.53-73.29-135.56-164.65-215.38-167.16-55.73-1.68-111.63-.34-167.35-.34"/><path d="M4250.29 3050.5c-33.47 27.94-68.78 53.88-99.91 84.16-38.32 37.15-36.15 76.81-.67 116.8 37.15 42 75.48 44.18 117.31 8.2 19.42-16.73 46.02-29.95 56.9-51.03 17.24-33.14 37.15-73.8 31.8-107.43-7.2-45.35-52.72-56.06-97.23-50.7m1615.09 16.73c-245.17 73.63-350.93 269.41-386.24 494.8-18.91 120.65 63.59 240.63 161.32 323.96 174.05 148.09 380.05 234.94 601.63 284.47 37.15 8.36 79.15 7.53 116.64 0 89.36-18.24 142.58-95.89 115.47-190.6-73.3-257.19-134.72-520.07-291.19-745.13-74.81-107.43-174.55-170.18-309.43-167.5"/><path d="M5923.79 3385.16c-64.43 24.77-117.65 55.22-153.13 124.33-65.1 127.34 21.59 296.68 169.53 344.87 96.39 31.3 159.31 27.95 198.81-35.47 21.09-33.97 30.12-83.67 25.44-123.83-19.92-167.83-92.21-302.37-232.28-309.73m-4510.09 150.43c-64.09 11.21-129.02 19.08-192.11 34.47-46.03 11.21-93.55 25.77-133.38 50.37-123.507 76.3-120.16 179.38-24.1 256.02 255.88 203.98 608.48 158.13 743.37-156.62 30.79-71.79 18.91-121.32-59.58-139.73-106.27-24.76-216.88-30.62-325.66-44.51M3145.78 2046.5c-39 13.89-77.49 29.95-117.32 41.5-101.91 29.45-137.89 115.12-165.34 201.8-20.42 64.09 58.91 124.83 123.51 99.56 107.6-42.33 179.56-121.98 225.58-225.73 26.61-60.07-6.02-94.21-58.23-116.97M5187.45-413.299c-105.94 36.311-217.39 61.746-316.8 111.109-200.65 99.563-289.51 287.98-342.23 491.96-38.32 147.922-52.55 301.868-86.85 450.962-50.04 217.7-153.3 410.138-289.85 587.338-60.58 78.48-109.95 168.17-150.28 258.87-45.19 101.57-11.88 186.24 91.04 230.92 72.79 31.62 154.29 53.37 233.45 58.73 318.63 21.58 612.5-68.77 886.12-224.9 153.12-87.34 265.92-219.54 360.47-366.96 141.58-221.045 258.39-452.467 318.97-710.829 76.98-327.638-51.71-636.2-294.87-793.493-119.49-77.308-256.72-107.094-400.64-93.54"/><path d="M5195.82 465.2c-177.06 50.2-233.46 193.437-266.76 351.567-10.88 52.041-23.09 105.587 6.53 159.301 34.3 62.082 76.98 78.312 143.25 50.032 151.95-64.59 195.13-203.309 233.45-343.534 32.8-120.313 8.37-164.656-108.11-217.366"/><path d="M5271.12-45.166c-75.3 22.255-151.95 41.164-225.75 67.603-208.19 74.797-304.58 243.469-359.64 442.93-73.97 267.398-140.24 536.973-219.9 802.533-45.85 152.6 44.85 235.94 186.1 240.79 302.23 10.37 556.77-103.91 733.83-350.56 137.39-191.433 254.54-397.922 303.57-634.196 18.41-89.189 30.29-176.035 1.84-268.235-51.38-165.66-159.15-258.028-328-284.132-28.12-4.35-55.73-11.044-83.68-16.566"/><path d="M5187.45-212.499c-160.82 40.159-315.79 92.2-426.58 226.066-116.64 140.895-167.85 309.901-200.48 485.266-49.03 263.048-126.68 514.717-267.09 745.297-32.8 53.89-54.22 115.46-75.64 175.2-25.94 72.62 6.69 142.57 74.3 184.24 96.39 59.4 203.5 70.44 309.6 56.39 213.87-28.28 418.04-85.01 604.13-205.15 174.05-112.45 283.32-275.43 381.56-446.61 98.74-172.191 187.77-351.404 219.06-551.2 47.86-305.885-58.91-566.59-401.81-658.79-65.77-17.737-138.9-7.697-208.68-10.542"/><path d="M5254.38 155.634c-50.2 13.888-101.74 24.096-150.44 42.502-189.28 71.452-270.94 234.936-323.83 410.134-46.85 154.95-78.82 315.925-100.74 476.4-23.76 174.19 105.1 270.74 257.22 235.1 197.81-46.35 332.35-166.33 435.94-335.168 91.54-149.094 150.45-309.734 190.28-477.903 30.79-129.851-71.29-296.18-199.98-333.83-32.3-9.538-66.78-11.713-100.25-17.235"/></g></svg>