<svg class="wave" width="1367" height="399" viewBox="0 0 1367 399" fill="none" xmlns="http://www.w3.org/2000/svg"><g opacity=".5" fill="#005CAC"><path d="M646.147 305.019c-94.753-20.042-174.321-18.917-282.607-8.093C243.637 308.898 0 376.186 0 376.186c40.167-11.47 103.448-42.073 202.393-71.167-74.73-10.967-116.933-34.122-136.023-86.156-12.503-34.075-5.796-72.22 12.407-99.542 7.186-10.776 18.204-19.085 31.473-23.946 3.665-27.298 16.359-41.066 29.269-51.1 20.766-16.163 43.473-13.002 61.221-8.093 1.389.383 2.73.91 4.072 1.484 21.748-11.924 40.167-13.29 54.083-5.603 14.994 8.285 17.964 19.78 20 31.608 1.652 9.674-4.24 21.168-15.186 27.634-9.605 5.675-21.628 3.424-26.179-2.467-.791-1.005-1.246-2.25-1.437-3.568a13.794 13.794 0 01-1.94-7.04c0-7.638 6.179-13.816 13.82-13.816 6.994 0 12.742 5.196 13.676 11.925 5.078-6.681 6.3-19.636-15.544-24.545 0 0-12.072-.024-22.156 5.053 2.779 5.507 4.671 11.757 5.317 18.486 1.629 17.073-9.365 32.279-20.55 34.769-11.186 2.49-25.413-14.008-14.922-25.861 8.455-9.555 15.161-4.981 15.161-4.981 3.641-10.8-20.862-42.767-49.197-6.25 0 0-4.071 8.142-6.586 18.845 1.916.312 3.832.67 5.772 1.126 29.796 6.776 47.353 32.997 45.317 53.303-2.036 20.306-36.67 36.541-50.059 11.685-8.264-15.325 3.88-28.687 3.88-28.687-16.264-12.188-87.831 10.872-38.443 75.405 54.538 71.238 154.393 42.551 493.718-32.614 174.082-38.552 348.259 4.55 452.693 41.378C1243.79 239.696 1367 316.824 1367 316.824s-107.14-37.522-211.4-67.047c-.41-.12-.81-.216-1.22-.336 6.08 2.898 9.32 4.574 9.32 4.574-6.28-2.371-14.06-5.148-23.14-8.237-202.68-50.645-432.785 24.209-509.311 28.088-6.203.311-12.191.551-17.964.718 119.208 27.514 220.572 75.98 220.572 75.98s-92.933-25.502-187.71-45.545zm260.835-99.039c31.425-1.82 61.963-1.556 91.424.287-68.358-15.133-144.788-26.196-208.452-21.383-133.723 10.105-133.148 20.521-253.171 54.548-17.987 5.101-35.329 10.201-52.143 15.206 5.03.934 9.94 1.772 14.779 2.49 13.508.862 27.089 2.227 40.67 4.023 111.831 4.933 181.027-44.395 366.893-55.171z"/><path d="M746.218 373.432s-72.957-27.059-177.675-30.052c-95.663-2.73-129.938-4.286-232.02 6.154C223.494 361.1 79.256 398.048 79.256 398.048c60.119-17.576 128.478-65.587 325.266-79.26 182.369-12.667 341.672 54.668 341.672 54.668l.024-.024zM546.675 158.065c-109.339 27.322-227.062 64.509-304.594 71.573-60.143 5.46-94.49-14.702-94.49-14.702 90.202 16.403 98.394 8.189 235.063-31.465 61.987-17.983 118.705-47.268 221.41-60.941 188.596-25.12 363.54 43.198 363.54 43.198s-117.531-21.863-210.464-27.322c-30.132-1.772-137.651 1.436-210.465 19.635v.024zm-144.884-30.579c-10.563 0-19.137-8.572-19.137-19.132 0-10.56 8.574-19.133 19.137-19.133s19.138 8.573 19.138 19.133c0 10.56-8.575 19.132-19.138 19.132zM349.864 36.35c-10.036 0-18.18-8.142-18.18-18.175C331.684 8.142 339.828 0 349.864 0c10.035 0 18.179 8.142 18.179 18.175 0 10.033-8.144 18.174-18.179 18.174zm-32.79 66.712c-7.641 0-13.82-6.178-13.82-13.817 0-7.638 6.179-13.816 13.82-13.816 7.64 0 13.82 6.178 13.82 13.816 0 7.639-6.18 13.817-13.82 13.817z"/></g></svg>